<svg xmlns="http://www.w3.org/2000/svg" viewBox="0 0 32 32" role="img" aria-label="鹿溪志愿">
  <!-- 中文命名副本，与 favicon.svg 同源 -->
  <defs>
    <linearGradient id="bg" x1="3" y1="2" x2="29" y2="30" gradientUnits="userSpaceOnUse">
      <stop offset="0%" stop-color="#127A55"/>
      <stop offset="100%" stop-color="#0D5E42"/>
    </linearGradient>
    <linearGradient id="stream" x1="5" y1="24" x2="27" y2="26" gradientUnits="userSpaceOnUse">
      <stop offset="0%" stop-color="#00D2FF" stop-opacity="0.25"/>
      <stop offset="55%" stop-color="#00D2FF" stop-opacity="0.95"/>
      <stop offset="100%" stop-color="#7CF0FF" stop-opacity="0.45"/>
    </linearGradient>
  </defs>
  <rect x="1" y="1" width="30" height="30" rx="8" fill="url(#bg)"/>
  <circle cx="9" cy="8" r="6.5" fill="#ffffff" opacity="0.06"/>
  <path d="M11 18.5 C11 13.5, 13.5 10.5, 16 9.2 C18.5 10.5, 21 13.5, 21 18.5"
        fill="none" stroke="#F5F7FA" stroke-width="1.7" stroke-linecap="round"/>
  <path d="M13.2 12.2 C12.2 10.4, 10.6 9.2, 9 8.6" fill="none" stroke="#F5F7FA" stroke-width="1.35" stroke-linecap="round"/>
  <path d="M18.8 12.2 C19.8 10.4, 21.4 9.2, 23 8.6" fill="none" stroke="#F5F7FA" stroke-width="1.35" stroke-linecap="round"/>
  <path d="M16 18.2 L16 22.8" fill="none" stroke="#F5F7FA" stroke-width="1.5" stroke-linecap="round"/>
  <circle cx="16" cy="24.2" r="1.35" fill="#F1C40F"/>
  <path d="M5.5 26.2 C9 24.8, 12.5 27.1, 16 25.9 C19.2 24.8, 22.5 25.6, 26.5 24.9"
        fill="none" stroke="url(#stream)" stroke-width="1.45" stroke-linecap="round"/>
  <g transform="translate(24.2 7.2)">
    <path d="M0-2.1 L0.45-0.45 L2.1 0 L0.45 0.45 L0 2.1 L-0.45 0.45 L-2.1 0 L-0.45-0.45 Z" fill="#00D2FF"/>
    <circle cx="0" cy="0" r="0.45" fill="#F5F7FA"/>
  </g>
</svg>
